<svg width="158" height="158" viewBox="0 0 158 158" fill="none" xmlns="http://www.w3.org/2000/svg">
<g clip-path="url(#clip0_128_270)">
<path d="M1.50686 6.81642L88.933 0.358964C99.6723 -0.562176 102.431 0.0587643 109.184 4.96782L137.091 24.6278C141.694 28.009 143.227 28.9301 143.227 32.6115V140.435C143.227 147.193 140.773 151.191 132.182 151.8L30.6579 157.95C24.2115 158.255 21.1415 157.334 17.7651 153.031L-2.786 126.307C-6.47214 121.389 -8 117.707 -8 113.403V17.5604C-8 12.0352 -5.54626 7.42788 1.50686 6.81642Z" fill="white"/>
<path fill-rule="evenodd" clip-rule="evenodd" d="M96.933 0.358591L9.50686 6.81605C2.45374 7.42593 0 12.0348 0 17.5585V113.401C0 117.704 1.52786 121.385 5.214 126.305L25.7651 153.028C29.1415 157.33 32.2115 158.253 38.6579 157.946L140.184 151.8C148.768 151.189 151.228 147.191 151.228 140.435V32.6111C151.228 29.1193 149.849 28.1129 145.788 25.133L117.184 4.96587C110.433 0.0568109 107.672 -0.564129 96.933 0.357011V0.358591ZM40.9536 30.8463C32.6633 31.404 30.7831 31.5304 26.0747 27.7021L14.1047 18.181C12.8881 16.9486 13.4995 15.4113 16.5647 15.1047L100.61 8.96327C107.668 8.34707 111.343 10.8071 114.103 12.9559L128.517 23.3997C129.133 23.711 130.666 25.5485 128.822 25.5485L42.028 30.7736L40.9536 30.8463ZM31.2887 139.514V47.9798C31.2887 43.9824 32.5164 42.1385 36.1915 41.8289L135.88 35.9923C139.261 35.6874 140.789 37.8362 140.789 41.8273V132.752C140.789 136.749 140.173 140.13 134.654 140.435L39.2583 145.965C33.7393 146.27 31.2903 144.432 31.2903 139.514H31.2887ZM125.457 52.8873C126.068 55.6523 125.457 58.4173 122.692 58.7333L118.094 59.6449V127.226C114.101 129.375 110.426 130.603 107.355 130.603C102.446 130.603 101.22 129.065 97.5429 124.461L67.4755 77.1561V122.924L76.9871 125.077C76.9871 125.077 76.9871 130.607 69.313 130.607L48.1568 131.835C47.5406 130.603 48.1568 127.533 50.3009 126.921L55.8261 125.389V64.8747L48.1584 64.2538C47.5422 61.4888 49.0748 57.4961 53.3724 57.1865L76.0723 55.6586L107.356 103.575V61.1839L99.382 60.2675C98.7658 56.8815 101.22 54.4215 104.285 54.1213L125.457 52.8873Z" fill="black"/>
<rect x="41" y="52" width="87" height="83" fill="white"/>
<path d="M90.4089 128.904C83.5903 129.044 77.7329 127.77 72.8367 125.084C67.9404 122.397 64.1191 118.478 61.3727 113.327C58.698 108.101 57.2861 101.858 57.137 94.6C57.0149 88.6612 57.7481 83.2917 59.3364 78.4914C60.9981 73.6896 63.4813 69.6043 66.7862 66.2357C70.091 62.8671 74.0715 60.2547 78.7276 58.3987C83.4571 56.5411 88.8279 55.5505 94.84 55.427C97.1862 55.3787 99.6087 55.4757 102.107 55.7177C104.68 55.9582 107.069 56.2392 109.276 56.5606C111.483 56.882 113.286 57.175 114.686 57.4396C116.083 57.6309 116.782 57.7266 116.782 57.7266L117.588 59.4704C117.588 59.4704 117.388 60.4647 116.989 62.4533C116.662 64.3671 116.275 66.9789 115.83 70.2888C115.458 73.5971 115.205 77.3431 115.071 81.5268L101.669 82.5724C101.669 82.5724 101.694 81.9851 101.743 80.8105C101.791 79.5626 101.799 78.1688 101.767 76.6291C101.702 73.4764 100.85 71.2568 99.2097 69.9703C97.5681 68.6104 94.9877 67.9666 91.4684 68.0389C88.1691 68.1067 85.4722 68.9323 83.3776 70.5157C81.283 72.0991 79.7557 74.5143 78.7955 77.7614C77.8354 81.0085 77.408 85.1981 77.5135 90.3304C77.6311 96.0492 78.3171 100.876 79.5715 104.811C80.826 108.746 82.5733 111.681 84.8135 113.615C87.1271 115.548 89.8968 116.481 93.1228 116.415C96.5688 116.344 99.1856 115.19 100.973 112.953C102.761 110.716 103.933 107.061 104.489 101.989L117.888 100.833C117.888 100.833 117.791 101.495 117.599 102.819C117.479 104.142 117.332 105.905 117.157 108.11C116.981 110.24 116.809 112.591 116.642 115.162C116.548 117.731 116.489 120.226 116.466 122.647L115.288 124.211C115.288 124.211 114.159 124.601 111.901 125.381C109.715 126.086 106.723 126.808 102.924 127.546C99.1995 128.356 95.0279 128.809 90.4089 128.904Z" fill="black"/>
</g>
<defs>
<clipPath id="clip0_128_270">
<rect width="158" height="158" fill="white"/>
</clipPath>
</defs>
</svg>
